<?xml version="1.0" encoding="utf-8"?>
<!-- Generator: Adobe Illustrator 25.2.0, SVG Export Plug-In . SVG Version: 6.00 Build 0)  -->
<svg version="1.1" id="Layer_1" xmlns="http://www.w3.org/2000/svg" xmlns:xlink="http://www.w3.org/1999/xlink" x="0px" y="0px"
	 viewBox="0 0 1978.3 643.5" style="enable-background:new 0 0 1978.3 643.5;" xml:space="preserve">
<style type="text/css">
	.st0{fill:#F1E9DE;}
	.st1{fill:#231F20;}
	.st2{font-family:'e-Ukraine-Light';}
	.st3{font-size:16.6594px;}
	.st4{font-size:10.4121px;}
	.st5{font-size:29.1539px;}
	.st6{letter-spacing:-1;}
	.st7{font-size:9.6018px;}
	.st8{fill:none;stroke:#70706E;stroke-width:1.089;stroke-miterlimit:10;}
	.st9{font-size:9.6462px;}
	.st10{fill:none;stroke:#70706E;stroke-width:0.436;stroke-miterlimit:10;}
	.st11{fill:none;stroke:#6E7DBA;stroke-width:2;stroke-miterlimit:10;}
	.st12{fill:#6E7DBA;}
</style>
<rect class="st0" width="1978.3" height="643.5"/>
<text transform="matrix(1 0 0 1 1241.1221 238.958)"><tspan x="0" y="0" class="st1 st2 st3">За</tspan><tspan x="21.5" y="0" class="st1 st2 st3">г</tspan><tspan x="29.8" y="0" class="st1 st2 st3">альна кількі</tspan><tspan x="141.6" y="0" class="st1 st2 st3">с</tspan><tspan x="152" y="0" class="st1 st2 st3">ть </tspan><tspan x="176.8" y="0" class="st1 st2 st3">а</tspan><tspan x="186.8" y="0" class="st1 st2 st3">укціонів</tspan></text>
<text transform="matrix(1 0 0 1 1241.1221 309.7607)"><tspan x="0" y="0" class="st1 st2 st3">Кількі</tspan><tspan x="55" y="0" class="st1 st2 st3">с</tspan><tspan x="65.4" y="0" class="st1 st2 st3">ть </tspan><tspan x="90.2" y="0" class="st1 st2 st3">у</tspan><tspan x="100.4" y="0" class="st1 st2 st3">спішних </tspan><tspan x="183.4" y="0" class="st1 st2 st3">а</tspan><tspan x="193.4" y="0" class="st1 st2 st3">укціонів</tspan></text>
<text transform="matrix(-6.123234e-17 -1 1 -6.123234e-17 361.1055 373.5056)"><tspan x="0" y="0" class="st1 st2 st4">Кількі</tspan><tspan x="34.3" y="0" class="st1 st2 st4">с</tspan><tspan x="40.9" y="0" class="st1 st2 st4">ть </tspan><tspan x="56.4" y="0" class="st1 st2 st4">а</tspan><tspan x="62.6" y="0" class="st1 st2 st4">укціонів</tspan></text>
<text transform="matrix(-6.123234e-17 -1 1 -6.123234e-17 411.6928 516.3665)"><tspan x="0" y="0" class="st1 st2 st4">202</tspan><tspan x="19.2" y="0" class="st1 st2 st4">0 рік</tspan></text>
<text transform="matrix(-6.123234e-17 -1 1 -6.123234e-17 941.7911 513.7355)"><tspan x="0" y="0" class="st1 st2 st4">20</tspan><tspan x="13.2" y="0" class="st1 st2 st4">21 рік</tspan></text>
<text transform="matrix(1 0 0 1 817.1445 497.666)" class="st1 st2 st4">місяці</text>
<text transform="matrix(1 0 0 1 408.1548 90.456)"><tspan x="0" y="0" class="st1 st2 st5">А</tspan><tspan x="21.7" y="0" class="st1 st2 st5">укціони з оренди </tspan><tspan x="313.9" y="0" class="st1 st2 st5">в</tspan><tspan x="332.1" y="0" class="st1 st2 st5">ан</tspan><tspan x="370.6" y="0" class="st1 st2 st5">т</tspan><tspan x="386.7" y="0" class="st1 st2 st5">ажних </tspan><tspan x="500.3" y="0" class="st1 st2 st5">в</tspan><tspan x="518.5" y="0" class="st1 st2 st5">агонів</tspan></text>
<text transform="matrix(1 0 0 1 436.4197 473.4719)" class="st2 st7">01</text>
<text transform="matrix(1 0 0 1 479.4352 473.4719)" class="st2 st7">02</text>
<text transform="matrix(1 0 0 1 523.1259 473.4631)" class="st2 st7">03</text>
<text transform="matrix(1 0 0 1 566.7133 473.4631)" class="st2 st7">04</text>
<text transform="matrix(1 0 0 1 610.5162 473.4631)" class="st2 st7">05</text>
<text transform="matrix(1 0 0 1 654.1133 473.4631)" class="st2 st7">06</text>
<text transform="matrix(1 0 0 1 698.2817 473.4631)" class="st2 st7">07</text>
<text transform="matrix(1 0 0 1 741.588 473.4631)" class="st2 st7">08</text>
<text transform="matrix(1 0 0 1 785.2976 473.4631)" class="st2 st7">09</text>
<line class="st8" x1="407.9" y1="452.5" x2="792.3" y2="452.5"/>
<line class="st8" x1="441.9" y1="460.3" x2="441.9" y2="453.1"/>
<line class="st8" x1="485.6" y1="460.3" x2="485.6" y2="453.1"/>
<line class="st8" x1="529.4" y1="460.3" x2="529.4" y2="453.1"/>
<line class="st8" x1="573.1" y1="460.3" x2="573.1" y2="453.1"/>
<line class="st8" x1="616.8" y1="460.3" x2="616.8" y2="453.1"/>
<line class="st8" x1="660.5" y1="460.3" x2="660.5" y2="453.1"/>
<line class="st8" x1="704.3" y1="460.3" x2="704.3" y2="453.1"/>
<line class="st8" x1="748" y1="460.3" x2="748" y2="453.1"/>
<line class="st8" x1="791.7" y1="460.3" x2="791.7" y2="453.1"/>
<text transform="matrix(1 0 0 1 866.364 473.4719)" class="st2 st7">11</text>
<text transform="matrix(1 0 0 1 908.7543 473.4719)" class="st2 st7">12</text>
<text transform="matrix(1 0 0 1 952.445 473.4631)" class="st2 st7">01</text>
<text transform="matrix(1 0 0 1 996.0324 473.4631)" class="st2 st7">02</text>
<text transform="matrix(1 0 0 1 1039.8353 473.4631)" class="st2 st7">03</text>
<text transform="matrix(1 0 0 1 1083.4325 473.4631)" class="st2 st7">04</text>
<text transform="matrix(1 0 0 1 1127.6008 473.4631)" class="st2 st7">05</text>
<text transform="matrix(1 0 0 1 1170.9071 473.4631)" class="st2 st7">06</text>
<line class="st8" x1="871.9" y1="452.5" x2="1200.9" y2="452.5"/>
<line class="st8" x1="871.8" y1="460.3" x2="871.8" y2="453.1"/>
<line class="st8" x1="915" y1="460.3" x2="915" y2="453.1"/>
<line class="st8" x1="958.7" y1="460.3" x2="958.7" y2="453.1"/>
<line class="st8" x1="1002.4" y1="460.3" x2="1002.4" y2="453.1"/>
<line class="st8" x1="1046.1" y1="460.3" x2="1046.1" y2="453.1"/>
<line class="st8" x1="1089.9" y1="460.3" x2="1089.9" y2="453.1"/>
<line class="st8" x1="1133.6" y1="460.3" x2="1133.6" y2="453.1"/>
<line class="st8" x1="1177.3" y1="460.3" x2="1177.3" y2="453.1"/>
<g>
</g>
<g>
	<text transform="matrix(0.9954 0 0 1 390.7666 462.5)" class="st2 st9">0</text>
	<text transform="matrix(0.9954 0 0 1 378.1646 421.584)" class="st2 st9">500</text>
	<text transform="matrix(0.9954 0 0 1 373.045 380.667)" class="st2 st9">1000</text>
	<text transform="matrix(0.9954 0 0 1 373.9449 339.75)" class="st2 st9">1500</text>
	<text transform="matrix(0.9954 0 0 1 371.6197 298.835)" class="st2 st9">2000</text>
	<text transform="matrix(0.9954 0 0 1 372.5196 257.917)" class="st2 st9">2500</text>
	<text transform="matrix(0.9954 0 0 1 371.5445 217.0019)" class="st2 st9">3000</text>
	<text transform="matrix(0.9954 0 0 1 372.4449 176.084)" class="st2 st9">3500</text>
</g>
<line x1="409.9" y1="452.5" x2="409.9" y2="167.4"/>
<g>
	<g>
		<line class="st10" x1="409.9" y1="411.8" x2="1200.1" y2="411.8"/>
		<line class="st10" x1="409.9" y1="371" x2="1200.1" y2="371"/>
		<line class="st10" x1="409.9" y1="330.3" x2="1200.1" y2="330.3"/>
		<line class="st10" x1="409.9" y1="289.6" x2="1200.1" y2="289.6"/>
		<line class="st10" x1="409.9" y1="248.8" x2="1200.1" y2="248.8"/>
		<line class="st10" x1="409.9" y1="208.1" x2="1200.1" y2="208.1"/>
		<line class="st10" x1="409.9" y1="167.4" x2="1200.1" y2="167.4"/>
	</g>
	<g>
	</g>
</g>
<g>
	<path class="st11" d="M1033.2,434.5c0-1.6,1.4-3,3-3h22.7c1.7,0,3,1.4,3,3v14c0,1.6-1.3,3-3,3h-22.7c-1.6,0-3-1.4-3-3V434.5z"/>
</g>
<g>
	<path class="st11" d="M1075.1,450.2c0-0.7,1.3-1.2,3-1.2h22.7c1.7,0,3,0.5,3,1.2c0,0.7-1.3,1.2-3,1.2h-22.7
		C1076.4,451.5,1075.1,450.9,1075.1,450.2z"/>
</g>
<g>
	<path class="st11" d="M1122.9,451.5C1121.3,451.5,1121.3,451.5,1122.9,451.5h22.7c1.7,0,1.7,0,0,0H1122.9z"/>
</g>
<g>
	<path class="st11" d="M1163.8,445.7c0-1.6,1.3-3,3-3h22.7c1.6,0,3,1.4,3,3v2.8c0,1.6-1.4,3-3,3h-22.7c-1.7,0-3-1.4-3-3V445.7z"/>
</g>
<g>
	<g>
		<path class="st11" d="M427.6,371.1c0-1.6,1.4-3,3-3h22.7c1.6,0,3,1.4,3,3v77.4c0,1.6-1.4,3-3,3h-22.7c-1.6,0-3-1.4-3-3V371.1z"/>
	</g>
	<g>
		<path class="st12" d="M430.6,442.6h22.7c1.7,0,3,1.3,3,3v2.9c0,1.7-1.3,3-3,3h-22.7c-1.7,0-3-1.3-3-3v-2.9
			C427.6,443.9,428.9,442.6,430.6,442.6z"/>
	</g>
</g>
<g>
	<g>
		<path class="st11" d="M469.9,346.9c0-1.6,1.4-3,3-3h22.7c1.6,0,3,1.4,3,3v101.6c0,1.6-1.4,3-3,3h-22.7c-1.6,0-3-1.4-3-3V346.9z"/>
	</g>
	<g>
		<path class="st12" d="M473.2,444.6h22.5c1.7,0,3.1,0.8,3.1,1.8v3.2c0,1-1.4,1.8-3.1,1.8h-22.5c-1.7,0-3.1-0.8-3.1-1.8v-3.2
			C470.1,445.4,471.5,444.6,473.2,444.6z"/>
	</g>
</g>
<g>
	<g>
		<path class="st11" d="M513.9,308.3c0-1.6,1.3-3,3-3h22.7c1.6,0,3,1.4,3,3v140.2c0,1.6-1.4,3-3,3h-22.7c-1.7,0-3-1.4-3-3V308.3z"/>
	</g>
	<g>
		<path class="st12" d="M513.9,441.8c0-1.6,1.3-3,3-3h22.7c1.6,0,3,1.4,3,3v6.7c0,1.6-1.4,3-3,3h-22.7c-1.7,0-3-1.4-3-3V441.8z"/>
	</g>
</g>
<g>
	<g>
		<path class="st11" d="M557.7,359.4c0-1.6,1.3-3,3-3h22.7c1.7,0,3,1.4,3,3v89.1c0,1.6-1.3,3-3,3h-22.7c-1.7,0-3-1.4-3-3V359.4z"/>
	</g>
	<g>
		<path class="st12" d="M557.7,440.1c0-1.6,1.3-3,3-3h22.7c1.7,0,3,1.4,3,3v8.4c0,1.6-1.3,3-3,3h-22.7c-1.7,0-3-1.4-3-3V440.1z"/>
	</g>
</g>
<g>
	<g>
		<path class="st11" d="M601.6,367.4c0-1.6,1.4-3,3-3h22.7c1.6,0,3,1.4,3,3v81.1c0,1.6-1.4,3-3,3h-22.7c-1.6,0-3-1.4-3-3V367.4z"/>
	</g>
	<g>
		<path class="st12" d="M601.6,431.1c0-1.7,1.4-3,3-3h22.7c1.6,0,3,1.3,3,3v17.4c0,1.6-1.4,3-3,3h-22.7c-1.6,0-3-1.4-3-3V431.1z"/>
	</g>
</g>
<g>
	<g>
		<path class="st11" d="M645.5,340.4c0-1.6,1.3-3,3-3h22.7c1.6,0,3,1.4,3,3v108c0,1.6-1.4,3-3,3h-22.7c-1.7,0-3-1.4-3-3V340.4z"/>
	</g>
	<g>
		<path class="st12" d="M645.5,389.5c0-1.7,1.3-3,3-3h22.7c1.6,0,3,1.3,3,3v59c0,1.6-1.4,3-3,3h-22.7c-1.7,0-3-1.4-3-3V389.5z"/>
	</g>
</g>
<g>
	<g>
		<path class="st11" d="M689.3,343.5c0-1.6,1.3-3,3-3H715c1.7,0,3,1.4,3,3v104.9c0,1.6-1.3,3-3,3h-22.7c-1.7,0-3-1.4-3-3V343.5z"/>
	</g>
	<g>
		<path class="st12" d="M689.3,356.3c0-1.6,1.3-3,3-3H715c1.7,0,3,1.4,3,3v92.2c0,1.6-1.3,3-3,3h-22.7c-1.7,0-3-1.4-3-3V356.3z"/>
	</g>
</g>
<g>
	<g>
		<path class="st11" d="M733.2,367.7c0-1.6,1.4-3,3-3h22.7c1.6,0,3,1.4,3,3v80.8c0,1.6-1.4,3-3,3h-22.7c-1.6,0-3-1.4-3-3V367.7z"/>
	</g>
	<g>
		<path class="st12" d="M733.2,377.3c0-1.6,1.4-3,3-3h22.7c1.6,0,3,1.4,3,3v71.1c0,1.6-1.4,3-3,3h-22.7c-1.6,0-3-1.4-3-3V377.3z"/>
	</g>
</g>
<g>
	<g>
		<path class="st11" d="M777.4,375.4c0-1.6,1.3-3,3-3h22.7c1.7,0,3,1.4,3,3v73.1c0,1.6-1.3,3-3,3h-22.7c-1.7,0-3-1.4-3-3V375.4z"/>
	</g>
	<g>
		<path class="st12" d="M777.4,413.7c0-1.6,1.3-3,3-3h22.7c1.7,0,3,1.4,3,3v34.7c0,1.6-1.3,3-3,3h-22.7c-1.7,0-3-1.4-3-3V413.7z"/>
	</g>
</g>
<g>
	<g>
		<path class="st11" d="M857.5,348.2c0-1.6,1.4-3,3-3h22.7c1.7,0,3,1.4,3,3v100.2c0,1.6-1.3,3-3,3h-22.7c-1.6,0-3-1.4-3-3V348.2z"/>
	</g>
	<g>
		<path class="st12" d="M857.5,429.5c0-1.6,1.4-3,3-3h22.7c1.7,0,3,1.4,3,3v18.9c0,1.6-1.3,3-3,3h-22.7c-1.6,0-3-1.4-3-3V429.5z"/>
	</g>
</g>
<g>
	<g>
		<path class="st11" d="M900.4,182.2c0-1.6,1.3-3,3-3H926c1.7,0,3,1.4,3,3v266.2c0,1.6-1.3,3-3,3h-22.7c-1.7,0-3-1.4-3-3V182.2z"/>
	</g>
	<g>
		<path class="st12" d="M900.4,433.6c0-1.6,1.3-3,3-3H926c1.7,0,3,1.4,3,3v14.9c0,1.6-1.3,3-3,3h-22.7c-1.7,0-3-1.4-3-3V433.6z"/>
	</g>
</g>
<g>
	<g>
		<path class="st11" d="M944.5,277c0-1.6,1.3-3,3-3h22.7c1.7,0,3,1.4,3,3v171.5c0,1.6-1.3,3-3,3h-22.7c-1.7,0-3-1.4-3-3V277z"/>
	</g>
	<g>
		<path class="st12" d="M944.5,426.7c0-1.6,1.3-3,3-3h22.7c1.7,0,3,1.4,3,3v21.8c0,1.6-1.3,3-3,3h-22.7c-1.7,0-3-1.4-3-3V426.7z"/>
	</g>
</g>
<g>
	<g>
		<path class="st11" d="M987.4,355.1c0-1.7,1.4-3,3-3h22.7c1.6,0,3,1.3,3,3v93.4c0,1.6-1.4,3-3,3h-22.7c-1.6,0-3-1.4-3-3V355.1z"/>
	</g>
	<g>
		<path class="st12" d="M987.4,430.6c0-1.6,1.4-3,3-3h22.7c1.6,0,3,1.4,3,3v17.9c0,1.6-1.4,3-3,3h-22.7c-1.6,0-3-1.4-3-3V430.6z"/>
	</g>
</g>
<g>
	<g>
	</g>
	<g>
	</g>
</g>
<circle class="st11" cx="1251.4" cy="202.4" r="12.3"/>
<circle class="st12" cx="1251.4" cy="275.4" r="12.3"/>
</svg>
