<?xml version="1.0" encoding="utf-8"?>
<!-- Generator: Adobe Illustrator 25.2.3, SVG Export Plug-In . SVG Version: 6.00 Build 0)  -->
<svg version="1.1" id="Layer_1" xmlns="http://www.w3.org/2000/svg" xmlns:xlink="http://www.w3.org/1999/xlink" x="0px" y="0px"
	 viewBox="0 0 1197.2 643.5" style="enable-background:new 0 0 1197.2 643.5;" xml:space="preserve">
<style type="text/css">
	.st0{fill:#F1E9DE;}
	.st1{fill:#231F20;}
	.st2{font-family:'e-Ukraine-Light';}
	.st3{font-size:16.6593px;}
	.st4{font-size:10.4121px;}
	.st5{font-size:29.1539px;}
	.st6{letter-spacing:-1;}
	.st7{font-size:9.6018px;}
	.st8{fill:none;stroke:#70706E;stroke-width:1.089;stroke-miterlimit:10;}
	.st9{font-size:9.6462px;}
	.st10{fill:none;stroke:#70706E;stroke-width:0.436;stroke-miterlimit:10;}
	.st11{fill:none;stroke:#6E7DBA;stroke-width:2;stroke-miterlimit:10;}
	.st12{fill:#6E7DBA;}
	.st13{font-size:10.4166px;}
</style>
<rect class="st0" width="1197.2" height="643.5"/>
<text transform="matrix(1 0 0 1 905.6115 238.958)"><tspan x="0" y="0" class="st1 st2 st3">За</tspan><tspan x="21.5" y="0" class="st1 st2 st3">г</tspan><tspan x="29.8" y="0" class="st1 st2 st3">альна кількі</tspan><tspan x="141.6" y="0" class="st1 st2 st3">с</tspan><tspan x="152" y="0" class="st1 st2 st3">ть </tspan><tspan x="176.8" y="0" class="st1 st2 st3">а</tspan><tspan x="186.8" y="0" class="st1 st2 st3">укціонів</tspan></text>
<text transform="matrix(1 0 0 1 905.6115 309.7607)"><tspan x="0" y="0" class="st1 st2 st3">Кількість успішних аукціонів</tspan></text>
<text transform="matrix(0 -1 1 0 25.5949 373.5056)"><tspan x="0" y="0" class="st1 st2 st4">Кількість аукціонів</tspan></text>
<text transform="matrix(0 -1 1 0 76.1822 516.3665)"><tspan x="0" y="0" class="st1 st2 st4">202</tspan><tspan x="19.2" y="0" class="st1 st2 st4">0 рік</tspan></text>
<text transform="matrix(0 -1 1 0 606.2805 513.7355)"><tspan x="0" y="0" class="st1 st2 st4">20</tspan><tspan x="13.2" y="0" class="st1 st2 st4">21 рік</tspan></text>
<text transform="matrix(1 0 0 1 481.6339 497.666)" class="st1 st2 st4">місяці</text>
<text transform="matrix(1 0 0 1 72.6442 90.456)"><tspan x="0" y="0" class="st1 st2 st5">Річна динаміка аукціонів з оренди </tspan><tspan x="563.7" y="0" class="st1 st2 st5">вантажних вагонів</tspan></text>
<text transform="matrix(1 0 0 1 100.9091 473.4718)" class="st2 st7">01</text>
<text transform="matrix(1 0 0 1 143.9246 473.4718)" class="st2 st7">02</text>
<text transform="matrix(1 0 0 1 187.6152 473.463)" class="st2 st7">03</text>
<text transform="matrix(1 0 0 1 231.2026 473.463)" class="st2 st7">04</text>
<text transform="matrix(1 0 0 1 275.0055 473.463)" class="st2 st7">05</text>
<text transform="matrix(1 0 0 1 318.6027 473.463)" class="st2 st7">06</text>
<text transform="matrix(1 0 0 1 362.771 473.463)" class="st2 st7">07</text>
<text transform="matrix(1 0 0 1 406.0773 473.463)" class="st2 st7">08</text>
<text transform="matrix(1 0 0 1 449.787 473.463)" class="st2 st7">09</text>
<line class="st8" x1="72.4" y1="452.5" x2="456.8" y2="452.5"/>
<line class="st8" x1="106.4" y1="460.3" x2="106.4" y2="453.1"/>
<line class="st8" x1="150.1" y1="460.3" x2="150.1" y2="453.1"/>
<line class="st8" x1="193.9" y1="460.3" x2="193.9" y2="453.1"/>
<line class="st8" x1="237.6" y1="460.3" x2="237.6" y2="453.1"/>
<line class="st8" x1="281.3" y1="460.3" x2="281.3" y2="453.1"/>
<line class="st8" x1="325" y1="460.3" x2="325" y2="453.1"/>
<line class="st8" x1="368.8" y1="460.3" x2="368.8" y2="453.1"/>
<line class="st8" x1="412.5" y1="460.3" x2="412.5" y2="453.1"/>
<line class="st8" x1="456.2" y1="460.3" x2="456.2" y2="453.1"/>
<text transform="matrix(1 0 0 1 530.8534 473.4718)" class="st2 st7">11</text>
<text transform="matrix(1 0 0 1 573.2437 473.4718)" class="st2 st7">12</text>
<text transform="matrix(1 0 0 1 616.9344 473.463)" class="st2 st7">01</text>
<text transform="matrix(1 0 0 1 660.5218 473.463)" class="st2 st7">02</text>
<text transform="matrix(1 0 0 1 704.3247 473.463)" class="st2 st7">03</text>
<text transform="matrix(1 0 0 1 747.9218 473.463)" class="st2 st7">04</text>
<text transform="matrix(1 0 0 1 792.0902 473.463)" class="st2 st7">05</text>
<text transform="matrix(1 0 0 1 835.3965 473.463)" class="st2 st7">06</text>
<line class="st8" x1="536.4" y1="452.5" x2="865.3" y2="452.5"/>
<line class="st8" x1="536.3" y1="460.3" x2="536.3" y2="453.1"/>
<line class="st8" x1="579.4" y1="460.3" x2="579.4" y2="453.1"/>
<line class="st8" x1="623.2" y1="460.3" x2="623.2" y2="453.1"/>
<line class="st8" x1="666.9" y1="460.3" x2="666.9" y2="453.1"/>
<line class="st8" x1="710.6" y1="460.3" x2="710.6" y2="453.1"/>
<line class="st8" x1="754.4" y1="460.3" x2="754.4" y2="453.1"/>
<line class="st8" x1="798.1" y1="460.3" x2="798.1" y2="453.1"/>
<line class="st8" x1="841.8" y1="460.3" x2="841.8" y2="453.1"/>
<g>
	<text transform="matrix(0.9954 0 0 1 55.256 462.5)" class="st2 st9">0</text>
	<text transform="matrix(0.9954 0 0 1 42.6539 421.584)" class="st2 st9">500</text>
	<text transform="matrix(0.9954 0 0 1 37.5343 380.667)" class="st2 st9">1000</text>
	<text transform="matrix(0.9954 0 0 1 38.4342 339.75)" class="st2 st9">1500</text>
	<text transform="matrix(0.9954 0 0 1 36.109 298.835)" class="st2 st9">2000</text>
	<text transform="matrix(0.9954 0 0 1 37.0089 257.917)" class="st2 st9">2500</text>
	<text transform="matrix(0.9954 0 0 1 36.0338 217.0019)" class="st2 st9">3000</text>
	<text transform="matrix(0.9954 0 0 1 36.9342 176.084)" class="st2 st9">3500</text>
</g>
<line x1="74.4" y1="452.5" x2="74.4" y2="167.4"/>
<g>
	<g>
		<line class="st10" x1="74.4" y1="411.8" x2="469.5" y2="411.8"/>
		<line class="st10" x1="74.4" y1="371" x2="469.5" y2="371"/>
		<line class="st10" x1="74.4" y1="330.3" x2="469.5" y2="330.3"/>
		<line class="st10" x1="74.4" y1="289.6" x2="469.5" y2="289.6"/>
		<line class="st10" x1="74.4" y1="248.8" x2="469.5" y2="248.8"/>
		<line class="st10" x1="74.4" y1="208.1" x2="469.5" y2="208.1"/>
		<line class="st10" x1="74.4" y1="167.4" x2="469.5" y2="167.4"/>
	</g>
</g>
<g>
	<g>
		<line class="st10" x1="521.5" y1="411.8" x2="865.3" y2="411.8"/>
		<line class="st10" x1="521.5" y1="371" x2="865.3" y2="371"/>
		<line class="st10" x1="521.5" y1="330.3" x2="865.3" y2="330.3"/>
		<line class="st10" x1="521.5" y1="289.6" x2="865.3" y2="289.6"/>
		<line class="st10" x1="521.5" y1="248.8" x2="865.3" y2="248.8"/>
		<line class="st10" x1="521.5" y1="208.1" x2="865.3" y2="208.1"/>
		<line class="st10" x1="521.5" y1="167.4" x2="865.3" y2="167.4"/>
	</g>
</g>
<g>
	<path class="st11" d="M697.7,434.5c0-1.6,1.4-3,3-3h22.7c1.6,0,3,1.4,3,3v14c0,1.6-1.4,3-3,3h-22.7c-1.6,0-3-1.4-3-3V434.5z"/>
</g>
<g>
	<path class="st11" d="M739.6,450.2c0-0.7,1.3-1.2,3-1.2h22.7c1.7,0,3,0.5,3,1.2c0,0.7-1.3,1.2-3,1.2h-22.7
		C740.9,451.5,739.6,450.9,739.6,450.2z"/>
</g>
<g>
	<path class="st11" d="M787.4,451.5C785.8,451.5,785.8,451.5,787.4,451.5h22.7c1.7,0,1.7,0,0,0H787.4z"/>
</g>
<g>
	<path class="st11" d="M828.3,445.7c0-1.6,1.3-3,3-3H854c1.6,0,3,1.4,3,3v2.8c0,1.6-1.4,3-3,3h-22.7c-1.7,0-3-1.4-3-3V445.7z"/>
</g>
<g>
	<g>
		<path class="st11" d="M92.1,371.1c0-1.6,1.3-3,3-3h22.7c1.7,0,3,1.4,3,3v77.4c0,1.6-1.3,3-3,3H95.1c-1.7,0-3-1.4-3-3V371.1z"/>
	</g>
	<g>
		<path class="st12" d="M95.1,442.6h22.7c1.7,0,3,1.3,3,3v2.9c0,1.7-1.3,3-3,3H95.1c-1.7,0-3-1.3-3-3v-2.9
			C92.1,443.9,93.4,442.6,95.1,442.6z"/>
	</g>
</g>
<g>
	<g>
		<path class="st11" d="M134.4,346.9c0-1.6,1.4-3,3-3h22.7c1.6,0,3,1.4,3,3v101.6c0,1.6-1.4,3-3,3h-22.7c-1.6,0-3-1.4-3-3V346.9z"/>
	</g>
	<g>
		<path class="st12" d="M137.7,444.6h22.5c1.7,0,3.1,0.8,3.1,1.8v3.2c0,1-1.4,1.8-3.1,1.8h-22.5c-1.7,0-3.1-0.8-3.1-1.8v-3.2
			C134.6,445.4,136,444.6,137.7,444.6z"/>
	</g>
</g>
<g>
	<g>
		<path class="st11" d="M178.4,308.3c0-1.6,1.4-3,3-3H204c1.7,0,3,1.4,3,3v140.2c0,1.6-1.3,3-3,3h-22.7c-1.6,0-3-1.4-3-3V308.3z"/>
	</g>
	<g>
		<path class="st12" d="M178.4,441.8c0-1.6,1.4-3,3-3H204c1.7,0,3,1.4,3,3v6.7c0,1.6-1.3,3-3,3h-22.7c-1.6,0-3-1.4-3-3V441.8z"/>
	</g>
</g>
<g>
	<g>
		<path class="st11" d="M222.2,359.4c0-1.6,1.3-3,3-3h22.7c1.6,0,3,1.4,3,3v89.1c0,1.6-1.4,3-3,3h-22.7c-1.7,0-3-1.4-3-3V359.4z"/>
	</g>
	<g>
		<path class="st12" d="M222.2,440.1c0-1.6,1.3-3,3-3h22.7c1.6,0,3,1.4,3,3v8.4c0,1.6-1.4,3-3,3h-22.7c-1.7,0-3-1.4-3-3V440.1z"/>
	</g>
</g>
<g>
	<g>
		<path class="st11" d="M266.1,367.4c0-1.6,1.4-3,3-3h22.7c1.7,0,3,1.4,3,3v81.1c0,1.6-1.3,3-3,3h-22.7c-1.6,0-3-1.4-3-3V367.4z"/>
	</g>
	<g>
		<path class="st12" d="M266.1,431.1c0-1.7,1.4-3,3-3h22.7c1.7,0,3,1.3,3,3v17.4c0,1.6-1.3,3-3,3h-22.7c-1.6,0-3-1.4-3-3V431.1z"/>
	</g>
</g>
<g>
	<g>
		<path class="st11" d="M309.9,340.4c0-1.6,1.3-3,3-3h22.7c1.6,0,3,1.4,3,3v108c0,1.6-1.4,3-3,3h-22.7c-1.7,0-3-1.4-3-3V340.4z"/>
	</g>
	<g>
		<path class="st12" d="M309.9,389.5c0-1.7,1.3-3,3-3h22.7c1.6,0,3,1.3,3,3v59c0,1.6-1.4,3-3,3h-22.7c-1.7,0-3-1.4-3-3V389.5z"/>
	</g>
</g>
<g>
	<g>
		<path class="st11" d="M353.8,343.5c0-1.6,1.4-3,3-3h22.7c1.6,0,3,1.4,3,3v104.9c0,1.6-1.4,3-3,3h-22.7c-1.6,0-3-1.4-3-3V343.5z"/>
	</g>
	<g>
		<path class="st12" d="M353.8,356.3c0-1.6,1.4-3,3-3h22.7c1.6,0,3,1.4,3,3v92.2c0,1.6-1.4,3-3,3h-22.7c-1.6,0-3-1.4-3-3V356.3z"/>
	</g>
</g>
<g>
	<g>
		<path class="st11" d="M397.7,367.7c0-1.6,1.4-3,3-3h22.7c1.6,0,3,1.4,3,3v80.8c0,1.6-1.4,3-3,3h-22.7c-1.6,0-3-1.4-3-3V367.7z"/>
	</g>
	<g>
		<path class="st12" d="M397.7,377.3c0-1.6,1.4-3,3-3h22.7c1.6,0,3,1.4,3,3v71.1c0,1.6-1.4,3-3,3h-22.7c-1.6,0-3-1.4-3-3V377.3z"/>
	</g>
</g>
<g>
	<g>
		<path class="st11" d="M441.9,375.4c0-1.6,1.4-3,3-3h22.7c1.6,0,3,1.4,3,3v73.1c0,1.6-1.4,3-3,3h-22.7c-1.6,0-3-1.4-3-3V375.4z"/>
	</g>
	<g>
		<path class="st12" d="M441.9,413.7c0-1.6,1.4-3,3-3h22.7c1.6,0,3,1.4,3,3v34.7c0,1.6-1.4,3-3,3h-22.7c-1.6,0-3-1.4-3-3V413.7z"/>
	</g>
</g>
<g>
	<g>
		<path class="st11" d="M522,348.2c0-1.6,1.3-3,3-3h22.7c1.7,0,3,1.4,3,3v100.2c0,1.6-1.3,3-3,3H525c-1.7,0-3-1.4-3-3V348.2z"/>
	</g>
	<g>
		<path class="st12" d="M522,429.5c0-1.6,1.3-3,3-3h22.7c1.7,0,3,1.4,3,3v18.9c0,1.6-1.3,3-3,3H525c-1.7,0-3-1.4-3-3V429.5z"/>
	</g>
</g>
<g>
	<g>
		<path class="st11" d="M564.8,182.2c0-1.6,1.3-3,3-3h22.7c1.7,0,3,1.4,3,3v266.2c0,1.6-1.3,3-3,3h-22.7c-1.7,0-3-1.4-3-3V182.2z"/>
	</g>
	<g>
		<path class="st12" d="M564.8,433.6c0-1.6,1.3-3,3-3h22.7c1.7,0,3,1.4,3,3v14.9c0,1.6-1.3,3-3,3h-22.7c-1.7,0-3-1.4-3-3V433.6z"/>
	</g>
</g>
<g>
	<g>
		<path class="st11" d="M609,277c0-1.6,1.3-3,3-3h22.7c1.7,0,3,1.4,3,3v171.5c0,1.6-1.3,3-3,3H612c-1.7,0-3-1.4-3-3V277z"/>
	</g>
	<g>
		<path class="st12" d="M609,426.7c0-1.6,1.3-3,3-3h22.7c1.7,0,3,1.4,3,3v21.8c0,1.6-1.3,3-3,3H612c-1.7,0-3-1.4-3-3V426.7z"/>
	</g>
</g>
<g>
	<g>
		<path class="st11" d="M651.8,355.1c0-1.7,1.4-3,3-3h22.7c1.7,0,3,1.3,3,3v93.4c0,1.6-1.3,3-3,3h-22.7c-1.6,0-3-1.4-3-3V355.1z"/>
	</g>
	<g>
		<path class="st12" d="M651.8,430.6c0-1.6,1.4-3,3-3h22.7c1.7,0,3,1.4,3,3v17.9c0,1.6-1.3,3-3,3h-22.7c-1.6,0-3-1.4-3-3V430.6z"/>
	</g>
</g>
<circle class="st11" cx="915.9" cy="202.4" r="12.3"/>
<circle class="st12" cx="915.9" cy="275.4" r="12.3"/>
<text transform="matrix(1 0 0 1 392.5743 269.1703)"><tspan x="0" y="0" class="st1 st2 st13">Дані за жовтень 2020 </tspan><tspan x="-17.7" y="12.5" class="st1 st2 st13">відсутні з технічних причин</tspan></text>
</svg>
