<?xml version="1.0" encoding="utf-8"?>
<!-- Generator: Adobe Illustrator 25.2.3, SVG Export Plug-In . SVG Version: 6.00 Build 0)  -->
<svg version="1.1" id="Layer_1" xmlns="http://www.w3.org/2000/svg" xmlns:xlink="http://www.w3.org/1999/xlink" x="0px" y="0px"
	 viewBox="0 0 1070.5 643.5" style="enable-background:new 0 0 1070.5 643.5;" xml:space="preserve">
<style type="text/css">
	.st0{fill:#F1E9DE;}
	.st1{fill:#231F20;}
	.st2{font-family:'e-Ukraine-Light';}
	.st3{font-size:16.6665px;}
	.st4{font-size:10.4166px;}
	.st5{font-size:29.1665px;}
	.st6{font-size:9.606px;}
	.st7{fill:none;}
	.st8{display:none;fill:none;stroke:#FF0000;}
	.st9{fill:none;stroke:#70706E;stroke-width:0.436;stroke-miterlimit:10;}
	.st10{fill:none;stroke:#70706E;stroke-width:1.089;stroke-miterlimit:10;}
	.st11{fill:none;stroke:#B861A1;stroke-width:4;stroke-linecap:round;stroke-linejoin:round;stroke-miterlimit:10;}
	.st12{fill:none;stroke:#6E7DBA;stroke-width:4;stroke-linecap:round;stroke-linejoin:round;stroke-miterlimit:10;}
	.st13{clip-path:url(#SVGID_7_);}
	.st14{clip-path:url(#SVGID_8_);}
	.st15{fill:#1D6996;}
	.st16{clip-path:url(#SVGID_11_);}
	.st17{clip-path:url(#SVGID_12_);}
	.st18{clip-path:url(#SVGID_15_);}
	.st19{clip-path:url(#SVGID_16_);}
	.st20{clip-path:url(#SVGID_19_);}
	.st21{clip-path:url(#SVGID_20_);}
	.st22{fill:#B861A1;}
	.st23{fill:#6E7DBA;}
</style>
<rect x="-8.6" y="0" class="st0" width="1090.5" height="643.7"/>
<text transform="matrix(1 0 0 1 941.9595 239.0194)"><tspan x="0" y="0" class="st1 st2 st3">напів</tspan><tspan x="49.5" y="0" class="st1 st2 st3">в</tspan><tspan x="59.9" y="0" class="st1 st2 st3">а</tspan><tspan x="70.2" y="0" class="st1 st2 st3">г</tspan><tspan x="78.4" y="0" class="st1 st2 st3">они</tspan></text>
<text transform="matrix(1 0 0 1 941.9595 309.8524)"><tspan x="0" y="0" class="st1 st2 st3">з</tspan><tspan x="9.1" y="0" class="st1 st2 st3">ерно</tspan><tspan x="55.2" y="0" class="st1 st2 st3">в</tspan><tspan x="65.7" y="0" class="st1 st2 st3">ози</tspan></text>
<text transform="matrix(0 -1 1 0 53.4381 477.9636)"><tspan x="0" y="0" class="st1 st2 st4">С</tspan><tspan x="7.7" y="0" class="st1 st2 st4">ер</tspan><tspan x="22" y="0" class="st1 st2 st4">е</tspan><tspan x="28.8" y="0" class="st1 st2 st4">дня</tspan><tspan x="50" y="0" class="st1 st2 st4"> </tspan><tspan x="53.2" y="0" class="st1 st2 st4">ціна</tspan><tspan x="77.6" y="0" class="st1 st2 st4"> </tspan><tspan x="80.9" y="0" class="st1 st2 st4">оренди</tspan><tspan x="124.4" y="0" class="st1 st2 st4"> </tspan><tspan x="127.6" y="0" class="st1 st2 st4">о</tspan><tspan x="134.7" y="0" class="st1 st2 st4">дно</tspan><tspan x="156.5" y="0" class="st1 st2 st4">г</tspan><tspan x="161.6" y="0" class="st1 st2 st4">о</tspan><tspan x="168.8" y="0" class="st1 st2 st4"> </tspan><tspan x="172" y="0" class="st1 st2 st4">в</tspan><tspan x="178.6" y="0" class="st1 st2 st4">а</tspan><tspan x="185" y="0" class="st1 st2 st4">г</tspan><tspan x="190.1" y="0" class="st1 st2 st4">она,</tspan><tspan x="214.1" y="0" class="st1 st2 st4"> </tspan><tspan x="217.4" y="0" class="st1 st2 st4">грн/</tspan><tspan x="242.2" y="0" class="st1 st2 st4">д</tspan><tspan x="249.4" y="0" class="st1 st2 st4">о</tspan><tspan x="256.6" y="0" class="st1 st2 st4">б</tspan><tspan x="263.5" y="0" class="st1 st2 st4">а</tspan></text>
<text transform="matrix(0 -1 1 0 101.4514 573.0623)"><tspan x="0" y="0" class="st1 st2 st4">202</tspan><tspan x="19.2" y="0" class="st1 st2 st4">0 рік</tspan></text>
<text transform="matrix(1 0 0 1 448.7682 385.5184)"><tspan x="0" y="0" class="st1 st2 st4">Дані за жовтень 2020 </tspan><tspan x="-17.7" y="12.5" class="st1 st2 st4">відсутні з технічних причин</tspan></text>
<text transform="matrix(0 -1 1 0 674.6323 573.0623)"><tspan x="0" y="0" class="st1 st2 st4">202</tspan><tspan x="19.2" y="0" class="st1 st2 st4">1 рік</tspan></text>
<text transform="matrix(1 0 0 1 108.6329 126.0485)"><tspan x="0" y="0" class="st1 st2 st5">К</tspan><tspan x="22.1" y="0" class="st1 st2 st5">о</tspan><tspan x="41.8" y="0" class="st1 st2 st5">ли</tspan><tspan x="82.4" y="0" class="st1 st2 st5">в</tspan><tspan x="100.6" y="0" class="st1 st2 st5">ання ціни на оренду найпопулярніших вагонів УЗ</tspan></text>
<text transform="matrix(1 0 0 1 103.6629 520.7801)" class="st2 st6">01</text>
<text transform="matrix(1 0 0 1 150.6417 520.7801)" class="st2 st6">02</text>
<text transform="matrix(1 0 0 1 197.6204 520.7801)" class="st2 st6">03</text>
<text transform="matrix(1 0 0 1 244.5991 520.7801)" class="st2 st6">04</text>
<text transform="matrix(1 0 0 1 291.5778 520.7801)" class="st2 st6">05</text>
<text transform="matrix(1 0 0 1 338.5565 520.7801)" class="st2 st6">06</text>
<text transform="matrix(1 0 0 1 385.5353 520.7801)" class="st2 st6">07</text>
<text transform="matrix(1 0 0 1 432.514 520.7801)" class="st2 st6">08</text>
<text transform="matrix(1 0 0 1 479.4927 520.7801)" class="st2 st6">09</text>
<text transform="matrix(1 0 0 1 573.9608 520.7801)" class="st2 st6">11</text>
<text transform="matrix(1 0 0 1 620.9396 520.7801)" class="st2 st6">12</text>
<text transform="matrix(1 0 0 1 667.9183 520.7801)" class="st2 st6">01</text>
<text transform="matrix(1 0 0 1 714.897 520.7801)" class="st2 st6">02</text>
<text transform="matrix(1 0 0 1 761.8757 520.7801)" class="st2 st6">03</text>
<text transform="matrix(1 0 0 1 808.8544 520.7801)" class="st2 st6">04</text>
<text transform="matrix(1 0 0 1 855.8331 520.7801)" class="st2 st6">05</text>
<text transform="matrix(1 0 0 1 902.8118 520.7801)" class="st2 st6">06</text>
<rect x="109" y="172.9" class="st7" width="818.8" height="330.9"/>
<rect x="327.6" y="710.4" class="st8" width="358.7" height="438.7"/>
<g>
	<defs>
		<rect id="SVGID_1_" x="106.8" y="193.3" width="375.4" height="310.5"/>
	</defs>
	<clipPath id="SVGID_2_">
		<use xlink:href="#SVGID_1_"  style="overflow:visible;"/>
	</clipPath>
</g>
<rect x="104.9" y="192" class="st7" width="379.3" height="313.1"/>
<g>
	<g>
		<line class="st9" x1="106.8" y1="503.8" x2="482.2" y2="503.8"/>
		<line class="st9" x1="106.8" y1="478" x2="482.2" y2="478"/>
		<line class="st9" x1="106.8" y1="452.1" x2="482.2" y2="452.1"/>
		<line class="st9" x1="106.8" y1="426.2" x2="482.2" y2="426.2"/>
		<line class="st9" x1="106.8" y1="400.3" x2="482.2" y2="400.3"/>
		<line class="st9" x1="106.8" y1="374.5" x2="482.2" y2="374.5"/>
		<line class="st9" x1="106.8" y1="348.6" x2="482.2" y2="348.6"/>
		<line class="st9" x1="106.8" y1="322.7" x2="482.2" y2="322.7"/>
		<line class="st9" x1="106.8" y1="296.8" x2="482.2" y2="296.8"/>
		<line class="st9" x1="106.8" y1="271" x2="482.2" y2="271"/>
		<line class="st9" x1="106.8" y1="245.1" x2="482.2" y2="245.1"/>
		<line class="st9" x1="106.8" y1="219.2" x2="482.2" y2="219.2"/>
		<line class="st9" x1="106.8" y1="193.3" x2="482.2" y2="193.3"/>
	</g>
</g>
<g>
	<defs>
		<rect id="SVGID_3_" x="580.3" y="193.3" width="346.3" height="310.5"/>
	</defs>
	<clipPath id="SVGID_4_">
		<use xlink:href="#SVGID_3_"  style="overflow:visible;"/>
	</clipPath>
</g>
<rect x="578.5" y="192" class="st7" width="349.9" height="313.1"/>
<g>
	<g>
		<line class="st9" x1="580.3" y1="503.8" x2="926.6" y2="503.8"/>
		<line class="st9" x1="580.3" y1="478" x2="926.6" y2="478"/>
		<line class="st9" x1="580.3" y1="452.1" x2="926.6" y2="452.1"/>
		<line class="st9" x1="580.3" y1="426.2" x2="926.6" y2="426.2"/>
		<line class="st9" x1="580.3" y1="400.3" x2="926.6" y2="400.3"/>
		<line class="st9" x1="580.3" y1="374.5" x2="926.6" y2="374.5"/>
		<line class="st9" x1="580.3" y1="348.6" x2="926.6" y2="348.6"/>
		<line class="st9" x1="580.3" y1="322.7" x2="926.6" y2="322.7"/>
		<line class="st9" x1="580.3" y1="296.8" x2="926.6" y2="296.8"/>
		<line class="st9" x1="580.3" y1="271" x2="926.6" y2="271"/>
		<line class="st9" x1="580.3" y1="245.1" x2="926.6" y2="245.1"/>
		<line class="st9" x1="580.3" y1="219.2" x2="926.6" y2="219.2"/>
		<line class="st9" x1="580.3" y1="193.3" x2="926.6" y2="193.3"/>
	</g>
</g>
<line class="st10" x1="109" y1="503.8" x2="904" y2="503.8"/>
<line x1="904" y1="503.8" x2="904" y2="508.9"/>
<line x1="856.3" y1="503.8" x2="856.3" y2="508.9"/>
<line x1="810.2" y1="503.8" x2="810.2" y2="508.9"/>
<line x1="762.6" y1="503.8" x2="762.6" y2="508.9"/>
<line x1="719.5" y1="503.8" x2="719.5" y2="508.9"/>
<line x1="671.8" y1="503.8" x2="671.8" y2="508.9"/>
<line x1="624.2" y1="503.8" x2="624.2" y2="508.9"/>
<line x1="578" y1="503.8" x2="578" y2="508.9"/>
<line x1="530.3" y1="503.8" x2="530.3" y2="508.9"/>
<line x1="484.2" y1="503.8" x2="484.2" y2="508.9"/>
<line x1="436.5" y1="503.8" x2="436.5" y2="508.9"/>
<line x1="388.8" y1="503.8" x2="388.8" y2="508.9"/>
<line x1="342.7" y1="503.8" x2="342.7" y2="508.9"/>
<line x1="295" y1="503.8" x2="295" y2="508.9"/>
<line x1="248.9" y1="503.8" x2="248.9" y2="508.9"/>
<line x1="201.3" y1="503.8" x2="201.3" y2="508.9"/>
<line x1="156.7" y1="503.8" x2="156.7" y2="508.9"/>
<line x1="109" y1="503.8" x2="109" y2="508.9"/>
<g>
	<line x1="109" y1="503.8" x2="109" y2="193.3"/>
</g>
<line class="st10" x1="109" y1="503.8" x2="99" y2="503.8"/>
<text transform="matrix(1 0 0 1 79.7492 506.831)" class="st2 st6">0</text>
<line class="st10" x1="109" y1="245.1" x2="99" y2="245.1"/>
<text transform="matrix(1 0 0 1 62.0197 248.0889)" class="st2 st6">1000</text>
<line class="st10" x1="109" y1="271" x2="99" y2="271"/>
<text transform="matrix(1 0 0 1 66.8791 273.9633)" class="st2 st6">900</text>
<line class="st10" x1="109" y1="296.8" x2="99" y2="296.8"/>
<text transform="matrix(1 0 0 1 66.9167 299.8374)" class="st2 st6">800</text>
<line class="st10" x1="109" y1="322.7" x2="99" y2="322.7"/>
<text transform="matrix(1 0 0 1 67.7609 325.7119)" class="st2 st6">700</text>
<line class="st10" x1="109" y1="348.6" x2="99" y2="348.6"/>
<text transform="matrix(1 0 0 1 66.8791 351.5859)" class="st2 st6">600</text>
<line class="st10" x1="109" y1="374.5" x2="99" y2="374.5"/>
<text transform="matrix(1 0 0 1 67.1418 377.4599)" class="st2 st6">500</text>
<line class="st10" x1="109" y1="400.3" x2="99" y2="400.3"/>
<text transform="matrix(1 0 0 1 66.9914 403.3344)" class="st2 st6">400</text>
<line class="st10" x1="109" y1="426.2" x2="99" y2="426.2"/>
<text transform="matrix(1 0 0 1 67.2731 429.2085)" class="st2 st6">300</text>
<line class="st10" x1="109" y1="452.1" x2="99" y2="452.1"/>
<text transform="matrix(1 0 0 1 67.3478 455.083)" class="st2 st6">200</text>
<line class="st10" x1="109" y1="478" x2="99" y2="478"/>
<text transform="matrix(1 0 0 1 68.7736 480.957)" class="st2 st6">100</text>
<line class="st10" x1="109" y1="193.3" x2="99" y2="193.3"/>
<text transform="matrix(1 0 0 1 63.1267 196.3408)" class="st2 st6">1200</text>
<line class="st10" x1="109" y1="219.2" x2="99" y2="219.2"/>
<text transform="matrix(1 0 0 1 64.5524 222.2148)" class="st2 st6">1100</text>
<rect x="107.9" y="1092.1" class="st8" width="358.5" height="314.9"/>
<path pointer-events="none" class="st11" d="M109,266.3c15.9,1.3,31.8,2.7,47.7,8c14.9,5,29.7,41,44.6,62.6
	c15.9,23.1,31.7,71.6,47.6,71.6c15.4,0,30.8-0.2,46.1-0.6c15.9-0.4,31.8-0.9,47.7-2.7c15.4-1.8,30.8-20.6,46.1-32.9
	c15.9-12.7,31.8-32,47.7-42.1c15.9-10.1,31.8-14.3,47.7-18.4"/>
<path pointer-events="none" class="st12" d="M109,201.6c15.9,19.2,31.8,38.4,47.7,57.7c14.9,18.1,29.7,37.4,44.6,54.4
	c15.9,18.1,31.7,17.8,47.6,50.1c15.4,31.3,30.8,137.8,46.1,137.8c15.9,0,31.8,0,47.7,0c15.4,0,30.8-178.5,46.1-200
	c15.9-22.2,31.8-33.4,47.7-33.4s31.8,28.6,47.7,57.3"/>
<path pointer-events="none" class="st11" d="M580,335.1c16.4,19.6,32.9,39.2,49.3,51.3c17,12.5,34,21.4,51,21.4
	c17,0,34-31.6,51-31.6c15.3,0,30.7,125.4,46,125.4c17,0,33.9,0,50.9,0c16.4,0,32.9,0,49.3,0c17,0,34,0,51,0"/>
<path pointer-events="none" class="st12" d="M580,363c16.4-0.3,32.9-0.6,49.3-0.6c17,0,34,139.2,51,139.2c17,0,34,0,51,0
	c15.3,0,30.7,0,46,0c17,0,33.9,0,50.9,0c16.4,0,32.9,0,49.3,0c17,0,34,0,51,0"/>
<g id="data-points">
	<g>
		<defs>
			<polygon id="SVGID_5_" points="113,580 114,580 113,580.3 			"/>
		</defs>
		<defs>
			<polygon id="SVGID_6_" points="111,579.2 110,579.2 111,578.8 			"/>
		</defs>
		<clipPath id="SVGID_7_">
			<use xlink:href="#SVGID_5_"  style="overflow:visible;"/>
		</clipPath>
		<clipPath id="SVGID_8_" class="st13">
			<use xlink:href="#SVGID_6_"  style="overflow:visible;"/>
		</clipPath>
		<g transform="translate(36.869431886126804,21)" class="st14">
			<path id="point-0-0" class="st15" d="M71.7,564.6c0-0.8,1.6-1.4,3.5-1.4c1.9,0,3.5,0.6,3.5,1.4c0,0.8-1.6,1.4-3.5,1.4
				C73.2,566,71.7,565.4,71.7,564.6z"/>
			<path id="point-0-2" class="st15" d="M121,616c0-0.8,1.6-1.4,3.5-1.4c1.9,0,3.5,0.6,3.5,1.4c0,0.8-1.6,1.4-3.5,1.4
				C122.5,617.3,121,616.7,121,616z"/>
			<path id="point-0-4" class="st15" d="M171.9,637.4c0-0.8,1.6-1.4,3.5-1.4s3.5,0.6,3.5,1.4c0,0.8-1.6,1.4-3.5,1.4
				S171.9,638.1,171.9,637.4z"/>
			<path id="point-0-6" class="st15" d="M222.9,605.7c0-0.8,1.6-1.4,3.5-1.4s3.5,0.6,3.5,1.4c0,0.8-1.6,1.4-3.5,1.4
				S222.9,606.5,222.9,605.7z"/>
			<path id="point-0-8" class="st15" d="M268.9,731.1c0-0.8,1.6-1.4,3.5-1.4c1.9,0,3.5,0.6,3.5,1.4c0,0.8-1.6,1.4-3.5,1.4
				C270.5,732.5,268.9,731.8,268.9,731.1L268.9,731.1z"/>
			<path id="point-0-10" class="st15" d="M319.8,731.1c0-0.8,1.6-1.4,3.5-1.4c1.9,0,3.5,0.6,3.5,1.4c0,0.8-1.6,1.4-3.5,1.4
				C321.4,732.5,319.8,731.8,319.8,731.1L319.8,731.1z"/>
			<path id="point-0-12" class="st15" d="M369.1,731.1c0-0.8,1.6-1.4,3.5-1.4s3.5,0.6,3.5,1.4c0,0.8-1.6,1.4-3.5,1.4
				S369.1,731.8,369.1,731.1L369.1,731.1z"/>
			<path id="point-0-14" class="st15" d="M420.1,731.1c0-0.8,1.6-1.4,3.5-1.4s3.5,0.6,3.5,1.4c0,0.8-1.6,1.4-3.5,1.4
				S420.1,731.8,420.1,731.1L420.1,731.1z"/>
		</g>
	</g>
	<g>
		<defs>
			<polygon id="SVGID_9_" points="492.6,580 493.6,580 492.6,580.3 			"/>
		</defs>
		<defs>
			<polygon id="SVGID_10_" points="490.6,579.2 489.6,579.2 490.6,578.8 			"/>
		</defs>
		<clipPath id="SVGID_11_">
			<use xlink:href="#SVGID_9_"  style="overflow:visible;"/>
		</clipPath>
		<clipPath id="SVGID_12_" class="st16">
			<use xlink:href="#SVGID_10_"  style="overflow:visible;"/>
		</clipPath>
		<g transform="translate(416.39208288642277,21)" class="st17">
			<path id="point-0-1" class="st15" d="M71.7,592.5c0-0.8,1.6-1.4,3.5-1.4c1.9,0,3.5,0.6,3.5,1.4c0,0.8-1.6,1.4-3.5,1.4
				C73.2,593.9,71.7,593.3,71.7,592.5z"/>
			<path id="point-0-3" class="st15" d="M121,591.9c0-0.8,1.6-1.4,3.5-1.4c1.9,0,3.5,0.6,3.5,1.4s-1.6,1.4-3.5,1.4
				C122.5,593.3,121,592.7,121,591.9z"/>
			<path id="point-0-5" class="st15" d="M171.9,731.1c0-0.8,1.6-1.4,3.5-1.4s3.5,0.6,3.5,1.4c0,0.8-1.6,1.4-3.5,1.4
				S171.9,731.8,171.9,731.1L171.9,731.1z"/>
			<path id="point-0-7" class="st15" d="M222.9,731.1c0-0.8,1.6-1.4,3.5-1.4s3.5,0.6,3.5,1.4c0,0.8-1.6,1.4-3.5,1.4
				S222.9,731.8,222.9,731.1L222.9,731.1z"/>
			<path id="point-0-9" class="st15" d="M268.9,731.1c0-0.8,1.6-1.4,3.5-1.4c1.9,0,3.5,0.6,3.5,1.4c0,0.8-1.6,1.4-3.5,1.4
				C270.5,732.5,268.9,731.8,268.9,731.1L268.9,731.1z"/>
			<path id="point-0-11" class="st15" d="M319.8,731.1c0-0.8,1.6-1.4,3.5-1.4c1.9,0,3.5,0.6,3.5,1.4c0,0.8-1.6,1.4-3.5,1.4
				C321.4,732.5,319.8,731.8,319.8,731.1L319.8,731.1z"/>
			<path id="point-0-13" class="st15" d="M369.1,731.1c0-0.8,1.6-1.4,3.5-1.4s3.5,0.6,3.5,1.4c0,0.8-1.6,1.4-3.5,1.4
				S369.1,731.8,369.1,731.1L369.1,731.1z"/>
			<path id="point-0-15" class="st15" d="M420.1,731.1c0-0.8,1.6-1.4,3.5-1.4s3.5,0.6,3.5,1.4c0,0.8-1.6,1.4-3.5,1.4
				S420.1,731.8,420.1,731.1L420.1,731.1z"/>
		</g>
	</g>
</g>
<g id="data-point-labels">
	<g>
		<defs>
			<polygon id="SVGID_13_" points="113,580 114,580 113,580.3 			"/>
		</defs>
		<defs>
			<polygon id="SVGID_14_" points="111,579.2 110,579.2 111,578.8 			"/>
		</defs>
		<clipPath id="SVGID_15_">
			<use xlink:href="#SVGID_13_"  style="overflow:visible;"/>
		</clipPath>
		<clipPath id="SVGID_16_" class="st18">
			<use xlink:href="#SVGID_14_"  style="overflow:visible;"/>
		</clipPath>
		<g transform="translate(36.869431886126804,21)" class="st19">
		</g>
	</g>
	<g>
		<defs>
			<polygon id="SVGID_17_" points="492.6,580 493.6,580 492.6,580.3 			"/>
		</defs>
		<defs>
			<polygon id="SVGID_18_" points="490.6,579.2 489.6,579.2 490.6,578.8 			"/>
		</defs>
		<clipPath id="SVGID_19_">
			<use xlink:href="#SVGID_17_"  style="overflow:visible;"/>
		</clipPath>
		<clipPath id="SVGID_20_" class="st20">
			<use xlink:href="#SVGID_18_"  style="overflow:visible;"/>
		</clipPath>
		<g transform="translate(416.39208288642277,21)" class="st21">
		</g>
	</g>
</g>
<circle class="st22" cx="955.3" cy="201.6" r="13.3"/>
<circle class="st23" cx="955.3" cy="279.7" r="13.3"/>
</svg>
